<svg width="52" height="52" viewBox="0 0 52 52" fill="none" xmlns="http://www.w3.org/2000/svg">
<path d="M38.9875 0H13.0125C5.83643 0 0 6.09564 0 13.5905V38.4095C0 45.9043 5.83643 52 13.0125 52H38.9875C46.1636 52 52 45.9043 52 38.4095V13.5905C52 6.09564 46.1636 0 38.9875 0ZM4.58986 13.5905C4.58986 8.73941 8.36777 4.79371 13.0125 4.79371H38.9875C43.6322 4.79371 47.4102 8.73941 47.4102 13.5905V38.4095C47.4102 43.2606 43.6322 47.2063 38.9875 47.2063H13.0125C8.36777 47.2063 4.58986 43.2606 4.58986 38.4095V13.5905Z" fill="white"/>
<path d="M25.9988 38.6414C32.6734 38.6414 38.1039 32.9697 38.1039 25.9987C38.1039 19.0276 32.6734 13.356 25.9988 13.356C19.3242 13.356 13.8937 19.0276 13.8937 25.9987C13.8937 32.9697 19.3242 38.6414 25.9988 38.6414ZM25.9988 18.1522C30.1421 18.1522 33.5116 21.6714 33.5116 25.9987C33.5116 30.326 30.1421 33.8452 25.9988 33.8452C21.8555 33.8452 18.486 30.326 18.486 25.9987C18.486 21.6714 21.8555 18.1522 25.9988 18.1522Z" fill="white"/>
<path d="M39.2263 15.3989C41.0245 15.3989 42.4884 13.87 42.4884 11.9919C42.4884 10.1139 41.0245 8.58496 39.2263 8.58496C37.428 8.58496 35.9642 10.1139 35.9642 11.9919C35.9642 13.87 37.428 15.3989 39.2263 15.3989Z" fill="white"/>
</svg>
