<svg width="51" height="52" viewBox="0 0 51 52" fill="none" xmlns="http://www.w3.org/2000/svg">
<path d="M1.78985 10.2896C0.595769 9.14306 0 7.72452 0 6.03669C0 4.34886 0.595769 2.86636 1.78985 1.71981C2.98394 0.573262 4.521 0 6.40626 0C8.29152 0 9.76672 0.573262 10.9582 1.71981C12.1523 2.86636 12.7481 4.3062 12.7481 6.03669C12.7481 7.76718 12.1523 9.14306 10.9582 10.2896C9.76414 11.4362 8.24768 12.0094 6.40626 12.0094C4.56485 12.0094 2.98394 11.4362 1.78985 10.2896ZM11.7423 16.8649V52H1.00582V16.8649H11.7423Z" fill="white"/>
<path d="M47.49 20.334C49.8291 22.9604 51 26.5681 51 31.1596V51.3815H40.8V32.5861C40.8 30.2717 40.2197 28.4719 39.0592 27.1893C37.8986 25.9068 36.3383 25.2668 34.3783 25.2668C32.4182 25.2668 30.8579 25.9095 29.6974 27.1893C28.5368 28.4719 27.9565 30.2717 27.9565 32.5861V51.3815H17.6972V16.769H27.9565V21.3606C28.9959 19.8301 30.3963 18.6222 32.1578 17.7316C33.9166 16.8437 35.8973 16.3984 38.0972 16.3984C42.0173 16.3984 45.1482 17.7129 47.4874 20.3367L47.49 20.334Z" fill="white"/>
</svg>
