<svg width="63" height="49" viewBox="0 0 63 49" fill="none" xmlns="http://www.w3.org/2000/svg">
<path d="M62.4609 13.1372C62.0766 8.9689 61.2433 4.36557 58.1798 1.94343C55.8036 0.0657938 52.6839 -0.00304047 49.7719 8.89131e-05C43.6139 0.00634768 37.4559 0.0125866 31.298 0.0188454C25.3757 0.0251041 19.4534 0.0313812 13.5311 0.03764C11.0567 0.03764 8.65242 -0.175157 6.35475 1.01714C4.37972 2.04358 2.83671 3.99317 1.91092 6.16183C0.62041 9.18169 0.348282 12.599 0.193983 15.938C-0.092173 22.0153 -0.0613111 28.1114 0.283759 34.1824C0.533444 38.6167 1.17028 43.5142 4.24224 46.34C6.96633 48.8435 10.8098 48.9656 14.339 48.9687C25.5496 48.9781 36.7602 48.9875 47.9708 49C49.4072 49 50.9081 48.9719 52.3725 48.7935C55.2565 48.4461 58.003 47.5261 59.8546 45.1446C61.7231 42.7444 62.2028 39.3991 62.489 36.2353C63.1791 28.562 63.1707 20.8074 62.4609 13.1372ZM24.8146 35.262V13.7381L41.5267 24.5001L24.8146 35.262Z" fill="white"/>
</svg>
