<svg width="24" height="24" viewBox="0 0 24 24" fill="none" xmlns="http://www.w3.org/2000/svg">
<path d="M12 6.57273C11.11 6.57273 10.24 6.76884 9.49993 7.13624C8.75991 7.50364 8.18314 8.02585 7.84254 8.63682C7.50195 9.24779 7.41283 9.92008 7.58647 10.5687C7.7601 11.2173 8.18868 11.8131 8.81802 12.2807C9.44736 12.7483 10.2492 13.0668 11.1221 13.1958C11.995 13.3248 12.8998 13.2586 13.7221 13.0055C14.5443 12.7524 15.2471 12.3239 15.7416 11.774C16.2361 11.2241 16.5 10.5777 16.5 9.91637C16.5 9.02959 16.0259 8.17912 15.182 7.55206C14.3381 6.92501 13.1935 6.57273 12 6.57273ZM12 11.0309C11.7033 11.0309 11.4133 10.9656 11.1666 10.8431C10.92 10.7206 10.7277 10.5465 10.6142 10.3429C10.5006 10.1392 10.4709 9.91514 10.5288 9.69894C10.5867 9.48274 10.7296 9.28414 10.9393 9.12827C11.1491 8.9724 11.4164 8.86625 11.7074 8.82324C11.9983 8.78024 12.2999 8.80231 12.574 8.88667C12.8481 8.97102 13.0824 9.11388 13.2472 9.29716C13.412 9.48045 13.5 9.69594 13.5 9.91637C13.5 10.212 13.342 10.4955 13.0607 10.7045C12.7794 10.9135 12.3978 11.0309 12 11.0309ZM12 1C8.8174 1 5.76516 1.9394 3.51472 3.61155C1.26428 5.28369 0 7.5516 0 9.91637C0 16.6037 8.055 21.6303 10.965 23.6922C11.244 23.8898 11.6146 24 12 24C12.3854 24 12.756 23.8898 13.035 23.6922C15.945 21.6303 24 16.6037 24 9.91637C24 7.5516 22.7357 5.28369 20.4853 3.61155C18.2348 1.9394 15.1826 1 12 1ZM12 21.3516C9 19.2117 3 14.9764 3 9.91637C3 8.1428 3.94821 6.44186 5.63604 5.18775C7.32387 3.93364 9.61305 3.22909 12 3.22909C14.3869 3.22909 16.6761 3.93364 18.364 5.18775C20.0518 6.44186 21 8.1428 21 9.91637C21 14.9764 15.075 19.2117 12 21.3516Z" fill="white"/>
</svg>
