<svg width="28" height="29" viewBox="0 0 28 29" fill="none" xmlns="http://www.w3.org/2000/svg">
<path d="M22.1667 4.8335H5.83337C4.90512 4.8335 4.01488 5.21541 3.3585 5.89523C2.70212 6.57505 2.33337 7.49709 2.33337 8.4585V20.5418C2.33337 21.5032 2.70212 22.4253 3.3585 23.1051C4.01488 23.7849 4.90512 24.1668 5.83337 24.1668H22.1667C23.095 24.1668 23.9852 23.7849 24.6416 23.1051C25.298 22.4253 25.6667 21.5032 25.6667 20.5418V8.4585C25.6667 7.49709 25.298 6.57505 24.6416 5.89523C23.9852 5.21541 23.095 4.8335 22.1667 4.8335ZM23.3334 20.5418C23.3334 20.8623 23.2105 21.1696 22.9917 21.3963C22.7729 21.6229 22.4761 21.7502 22.1667 21.7502H5.83337C5.52396 21.7502 5.22721 21.6229 5.00842 21.3963C4.78962 21.1696 4.66671 20.8623 4.66671 20.5418V8.4585C4.66671 8.13803 4.78962 7.83068 5.00842 7.60408C5.22721 7.37747 5.52396 7.25016 5.83337 7.25016H22.1667C22.4761 7.25016 22.7729 7.37747 22.9917 7.60408C23.2105 7.83068 23.3334 8.13803 23.3334 8.4585V20.5418ZM20.7434 11.3343C20.9341 11.5847 21.0216 11.9031 20.9866 12.22C20.9516 12.5369 20.7971 12.8266 20.5567 13.026L16.1817 16.651C15.5619 17.1627 14.7927 17.4414 14 17.4414C13.2074 17.4414 12.4382 17.1627 11.8184 16.651L7.44337 13.026C7.23083 12.8182 7.10133 12.5353 7.0805 12.2334C7.05968 11.9314 7.14904 11.6324 7.33091 11.3954C7.51278 11.1584 7.77391 11.0008 8.06263 10.9537C8.35135 10.9066 8.64663 10.9734 8.89004 11.141L13.2767 14.766C13.4827 14.9346 13.7375 15.0263 14 15.0263C14.2626 15.0263 14.5174 14.9346 14.7234 14.766L19.11 11.141C19.3518 10.9434 19.6592 10.8529 19.9652 10.8891C20.2711 10.9253 20.5509 11.0854 20.7434 11.3343Z" fill="white"/>
</svg>
