<svg width="30" height="31" viewBox="0 0 30 31" fill="none" xmlns="http://www.w3.org/2000/svg">
<path d="M25.125 22.4102C25.1176 21.3982 24.7273 20.4292 24.0375 19.7107L23.75 19.3748C22.6723 18.2613 21.2116 17.6343 19.6875 17.6311C18.8193 17.6379 17.9641 17.8499 17.1875 18.2511L16.125 18.7936C15.2206 18.341 14.3966 17.734 13.6875 16.9982C12.9769 16.2427 12.3938 15.3695 11.9625 14.4148L12.4875 13.3169C12.8822 12.5163 13.0918 11.632 13.1 10.7336C13.087 9.94741 12.9235 9.17169 12.6188 8.45118C12.3142 7.73067 11.8745 7.07964 11.325 6.53566L10.975 6.18691C10.2724 5.46 9.31925 5.05115 8.32502 5.05025H7.27502C6.28046 5.05025 5.32664 5.45851 4.62337 6.18521C3.92011 6.91191 3.52502 7.89753 3.52502 8.92525V9.0415C3.56448 11.1604 3.8841 13.2638 4.47502 15.2932C5.24347 17.9217 6.61583 20.3192 8.47502 22.2811C10.3669 24.2076 12.6833 25.6305 15.225 26.4273C17.1874 27.0468 19.2235 27.3816 21.275 27.4219H21.3625C22.3571 27.4219 23.3109 27.0137 24.0142 26.287C24.7174 25.5603 25.1125 24.5746 25.1125 23.5469V22.4619L25.125 22.4102ZM21.375 24.8127C19.5605 24.7827 17.7592 24.487 16.025 23.9344C13.868 23.2613 11.8998 22.0605 10.2875 20.434C8.71682 18.7675 7.55898 16.7336 6.91252 14.5052C6.38712 12.707 6.10528 10.8422 6.07502 8.964C6.07502 8.62143 6.20672 8.29289 6.44114 8.05065C6.67556 7.80842 6.9935 7.67233 7.32502 7.67233H8.37502C8.53953 7.67135 8.70261 7.70393 8.85491 7.76821C9.0072 7.83249 9.14572 7.9272 9.26252 8.04691L9.60002 8.39566C10.1811 9.0203 10.5039 9.85423 10.5 10.7207C10.5001 11.2376 10.3801 11.747 10.15 12.2061L9.36252 13.8465C9.28824 14.0148 9.2498 14.1976 9.2498 14.3825C9.2498 14.5675 9.28824 14.7503 9.36252 14.9186C9.94007 16.3682 10.7898 17.6852 11.8625 18.7936C12.9348 19.9026 14.2094 20.7807 15.6125 21.3769C15.7754 21.4537 15.9523 21.4934 16.1313 21.4934C16.3103 21.4934 16.4872 21.4537 16.65 21.3769L18.2375 20.5502C18.8465 20.2299 19.5384 20.1186 20.2128 20.2324C20.8872 20.3462 21.5089 20.6793 21.9875 21.1832L22.325 21.5448C22.556 21.7854 22.6861 22.1101 22.6875 22.449V23.5211C22.6878 23.6974 22.6532 23.872 22.5857 24.034C22.5183 24.1959 22.4194 24.3419 22.2953 24.463C22.1712 24.584 22.0244 24.6774 21.8639 24.7376C21.7035 24.7978 21.5329 24.8233 21.3625 24.8127H21.375ZM15.55 9.55816C15.5037 9.21903 15.5896 8.87475 15.7888 8.60103C15.988 8.32732 16.2843 8.14659 16.6125 8.09858C16.8205 8.08179 17.0295 8.08179 17.2375 8.09858C17.7759 8.10644 18.3104 8.19342 18.825 8.35691C19.5604 8.59945 20.2289 9.02031 20.7747 9.58432C21.3205 10.1483 21.7278 10.8391 21.9625 11.599C22.1238 12.1297 22.2039 12.6832 22.2 13.2394C22.2207 13.4542 22.2207 13.6705 22.2 13.8852C22.1553 14.2278 21.9806 14.538 21.7146 14.7475C21.4485 14.9571 21.1128 15.0488 20.7813 15.0025C20.4498 14.9563 20.1496 14.7759 19.9468 14.5009C19.744 14.226 19.6553 13.8791 19.7 13.5365C19.7 13.5365 19.7 13.4073 19.7 13.2394C19.7063 12.9457 19.664 12.653 19.575 12.374C19.4676 12.0081 19.2745 11.6752 19.0129 11.4049C18.7512 11.1345 18.4291 10.935 18.075 10.824C17.8039 10.7353 17.5218 10.6875 17.2375 10.6819C17.146 10.6736 17.054 10.6736 16.9625 10.6819C16.7982 10.7055 16.6309 10.6949 16.4705 10.651C16.3101 10.6071 16.1598 10.5305 16.0284 10.4259C15.8969 10.3213 15.7869 10.1907 15.7047 10.0418C15.6226 9.89277 15.57 9.72838 15.55 9.55816ZM27.0125 11.9865V12.1673C27.0125 12.5099 26.8808 12.8384 26.6464 13.0807C26.412 13.3229 26.094 13.459 25.7625 13.459C25.431 13.459 25.1131 13.3229 24.8786 13.0807C24.6442 12.8384 24.5125 12.5099 24.5125 12.1673V12.0382C24.5082 11.4171 24.4198 10.7998 24.25 10.204C23.9779 9.19392 23.4608 8.27232 22.7477 7.52641C22.0346 6.78051 21.1491 6.235 20.175 5.9415C19.5985 5.76607 19.001 5.67477 18.4 5.67025H18.2875C18.1234 5.67449 17.96 5.64528 17.8068 5.58428C17.6536 5.52329 17.5135 5.4317 17.3945 5.31476C17.2755 5.19782 17.18 5.0578 17.1134 4.90271C17.0468 4.74762 17.0104 4.5805 17.0063 4.41087C17.0022 4.24125 17.0304 4.07245 17.0895 3.91411C17.1485 3.75578 17.2371 3.61101 17.3503 3.48807C17.4635 3.36513 17.599 3.26642 17.749 3.19759C17.8991 3.12876 18.0609 3.09115 18.225 3.08691H18.4C19.2471 3.09035 20.0892 3.22088 20.9 3.47441C22.2647 3.88513 23.5071 4.64494 24.5122 5.68353C25.5173 6.72211 26.2526 8.0059 26.65 9.41608C26.8917 10.25 27.0138 11.116 27.0125 11.9865Z" fill="white"/>
</svg>
