<svg width="34" height="34" viewBox="0 0 34 34" fill="none" xmlns="http://www.w3.org/2000/svg">
<g clip-path="url(#clip0_50_86)">
<path d="M25.5 5.66665H24.0833V4.24998C24.0833 3.87426 23.9341 3.51392 23.6684 3.24824C23.4027 2.98257 23.0424 2.83331 22.6667 2.83331C22.2909 2.83331 21.9306 2.98257 21.6649 3.24824C21.3993 3.51392 21.25 3.87426 21.25 4.24998V5.66665H12.75V4.24998C12.75 3.87426 12.6007 3.51392 12.3351 3.24824C12.0694 2.98257 11.7091 2.83331 11.3333 2.83331C10.9576 2.83331 10.5973 2.98257 10.3316 3.24824C10.0659 3.51392 9.91667 3.87426 9.91667 4.24998V5.66665H8.5C7.37283 5.66665 6.29183 6.11441 5.4948 6.91144C4.69777 7.70847 4.25 8.78948 4.25 9.91665V26.9166C4.25 28.0438 4.69777 29.1248 5.4948 29.9219C6.29183 30.7189 7.37283 31.1666 8.5 31.1666H25.5C26.6272 31.1666 27.7082 30.7189 28.5052 29.9219C29.3022 29.1248 29.75 28.0438 29.75 26.9166V9.91665C29.75 8.78948 29.3022 7.70847 28.5052 6.91144C27.7082 6.11441 26.6272 5.66665 25.5 5.66665ZM8.5 8.49998H9.91667V9.91665C9.91667 10.2924 10.0659 10.6527 10.3316 10.9184C10.5973 11.1841 10.9576 11.3333 11.3333 11.3333C11.7091 11.3333 12.0694 11.1841 12.3351 10.9184C12.6007 10.6527 12.75 10.2924 12.75 9.91665V8.49998H21.25V9.91665C21.25 10.2924 21.3993 10.6527 21.6649 10.9184C21.9306 11.1841 22.2909 11.3333 22.6667 11.3333C23.0424 11.3333 23.4027 11.1841 23.6684 10.9184C23.9341 10.6527 24.0833 10.2924 24.0833 9.91665V8.49998H25.5C25.8757 8.49998 26.2361 8.64924 26.5017 8.91491C26.7674 9.18059 26.9167 9.54092 26.9167 9.91665V15.5833H7.08333V9.91665C7.08333 9.54092 7.23259 9.18059 7.49827 8.91491C7.76394 8.64924 8.12428 8.49998 8.5 8.49998ZM25.5 28.3333H8.5C8.12428 28.3333 7.76394 28.1841 7.49827 27.9184C7.23259 27.6527 7.08333 27.2924 7.08333 26.9166V18.4166H26.9167V26.9166C26.9167 27.2924 26.7674 27.6527 26.5017 27.9184C26.2361 28.1841 25.8757 28.3333 25.5 28.3333Z" fill="#9D9D9D"/>
<path d="M11.3333 24.0833C12.1157 24.0833 12.75 23.4491 12.75 22.6667C12.75 21.8843 12.1157 21.25 11.3333 21.25C10.5509 21.25 9.91666 21.8843 9.91666 22.6667C9.91666 23.4491 10.5509 24.0833 11.3333 24.0833Z" fill="#9D9D9D"/>
<path d="M22.6667 21.25H17C16.6243 21.25 16.2639 21.3993 15.9983 21.6649C15.7326 21.9306 15.5833 22.2909 15.5833 22.6667C15.5833 23.0424 15.7326 23.4027 15.9983 23.6684C16.2639 23.9341 16.6243 24.0833 17 24.0833H22.6667C23.0424 24.0833 23.4027 23.9341 23.6684 23.6684C23.9341 23.4027 24.0833 23.0424 24.0833 22.6667C24.0833 22.2909 23.9341 21.9306 23.6684 21.6649C23.4027 21.3993 23.0424 21.25 22.6667 21.25Z" fill="#9D9D9D"/>
</g>
<defs>
<clipPath id="clip0_50_86">
<rect width="34" height="34" fill="white"/>
</clipPath>
</defs>
</svg>
