<svg width="45" height="45" viewBox="0 0 45 45" fill="none" xmlns="http://www.w3.org/2000/svg">
<path d="M43.8979 38.5765C44.6036 39.2822 45 40.2393 45 41.2372C45 42.2352 44.6036 43.1922 43.8979 43.8979C43.1922 44.6036 42.2352 45 41.2372 45C40.2393 45 39.2822 44.6036 38.5765 43.8979L22.5 27.7839L6.42346 43.8979C5.71781 44.6036 4.76073 45 3.76278 45C2.76483 45 1.80775 44.6036 1.10209 43.8979C0.396435 43.1922 0 42.2352 0 41.2372C0 40.2393 0.396435 39.2822 1.10209 38.5765L17.2161 22.5L1.10209 6.42346C0.396435 5.71781 -7.43531e-09 4.76073 0 3.76278C7.43532e-09 2.76483 0.396435 1.80775 1.10209 1.10209C1.80775 0.396435 2.76483 7.43532e-09 3.76278 0C4.76073 -7.43531e-09 5.71781 0.396435 6.42346 1.10209L22.5 17.2161L38.5765 1.10209C39.2822 0.396435 40.2393 0 41.2372 0C42.2352 0 43.1922 0.396435 43.8979 1.10209C44.6036 1.80775 45 2.76483 45 3.76278C45 4.76073 44.6036 5.71781 43.8979 6.42346L27.7839 22.5L43.8979 38.5765Z" fill="#9D9D9D"/>
</svg>
