<svg width="34" height="34" viewBox="0 0 34 34" fill="none" xmlns="http://www.w3.org/2000/svg">
<path d="M29.75 8.50004H22.6667V6.13421C22.6335 5.22728 22.242 4.37054 21.5781 3.75179C20.9142 3.13304 20.0321 2.80276 19.125 2.83337H14.875C13.968 2.80276 13.0859 3.13304 12.422 3.75179C11.7581 4.37054 11.3666 5.22728 11.3334 6.13421V8.50004H4.25004C3.87432 8.50004 3.51398 8.6493 3.24831 8.91497C2.98263 9.18065 2.83337 9.54098 2.83337 9.91671C2.83337 10.2924 2.98263 10.6528 3.24831 10.9184C3.51398 11.1841 3.87432 11.3334 4.25004 11.3334H5.66671V26.9167C5.66671 28.0439 6.11447 29.1249 6.9115 29.9219C7.70853 30.7189 8.78954 31.1667 9.91671 31.1667H24.0834C25.2105 31.1667 26.2915 30.7189 27.0886 29.9219C27.8856 29.1249 28.3334 28.0439 28.3334 26.9167V11.3334H29.75C30.1258 11.3334 30.4861 11.1841 30.7518 10.9184C31.0175 10.6528 31.1667 10.2924 31.1667 9.91671C31.1667 9.54098 31.0175 9.18065 30.7518 8.91497C30.4861 8.6493 30.1258 8.50004 29.75 8.50004ZM14.1667 6.13421C14.1667 5.90754 14.4642 5.66671 14.875 5.66671H19.125C19.5359 5.66671 19.8334 5.90754 19.8334 6.13421V8.50004H14.1667V6.13421ZM25.5 26.9167C25.5 27.2924 25.3508 27.6528 25.0851 27.9184C24.8194 28.1841 24.4591 28.3334 24.0834 28.3334H9.91671C9.54098 28.3334 9.18065 28.1841 8.91497 27.9184C8.6493 27.6528 8.50004 27.2924 8.50004 26.9167V11.3334H25.5V26.9167Z" fill="#FF0000"/>
<path d="M12.75 24.0833C13.1258 24.0833 13.4861 23.934 13.7518 23.6683C14.0175 23.4026 14.1667 23.0423 14.1667 22.6666V16.9999C14.1667 16.6242 14.0175 16.2639 13.7518 15.9982C13.4861 15.7325 13.1258 15.5833 12.75 15.5833C12.3743 15.5833 12.014 15.7325 11.7483 15.9982C11.4826 16.2639 11.3334 16.6242 11.3334 16.9999V22.6666C11.3334 23.0423 11.4826 23.4026 11.7483 23.6683C12.014 23.934 12.3743 24.0833 12.75 24.0833Z" fill="#FF0000"/>
<path d="M21.25 24.0833C21.6258 24.0833 21.9861 23.934 22.2518 23.6683C22.5175 23.4026 22.6667 23.0423 22.6667 22.6666V16.9999C22.6667 16.6242 22.5175 16.2639 22.2518 15.9982C21.9861 15.7325 21.6258 15.5833 21.25 15.5833C20.8743 15.5833 20.514 15.7325 20.2483 15.9982C19.9826 16.2639 19.8334 16.6242 19.8334 16.9999V22.6666C19.8334 23.0423 19.9826 23.4026 20.2483 23.6683C20.514 23.934 20.8743 24.0833 21.25 24.0833Z" fill="#FF0000"/>
</svg>
