<svg width="60" height="55" viewBox="0 0 60 55" fill="none" xmlns="http://www.w3.org/2000/svg">
<path d="M51 0H9C6.61305 0 4.32387 1.08649 2.63604 3.02046C0.948212 4.95443 0 7.57746 0 10.3125V44.6875C0 47.4225 0.948212 50.0456 2.63604 51.9795C4.32387 53.9135 6.61305 55 9 55H51C53.3869 55 55.6761 53.9135 57.364 51.9795C59.0518 50.0456 60 47.4225 60 44.6875V10.3125C60 7.57746 59.0518 4.95443 57.364 3.02046C55.6761 1.08649 53.3869 0 51 0ZM54 44.6875C54 45.5992 53.6839 46.4735 53.1213 47.1182C52.5587 47.7628 51.7957 48.125 51 48.125H9C8.20435 48.125 7.44129 47.7628 6.87868 47.1182C6.31607 46.4735 6 45.5992 6 44.6875V10.3125C6 9.40082 6.31607 8.52648 6.87868 7.88182C7.44129 7.23716 8.20435 6.875 9 6.875H51C51.7957 6.875 52.5587 7.23716 53.1213 7.88182C53.6839 8.52648 54 9.40082 54 10.3125V44.6875ZM47.34 18.4937C47.8305 19.2061 48.0553 20.1118 47.9654 21.0133C47.8755 21.9149 47.4781 22.7391 46.86 23.3062L35.61 33.6187C34.0162 35.0746 32.0383 35.8673 30 35.8673C27.9617 35.8673 25.9838 35.0746 24.39 33.6187L13.14 23.3062C12.5934 22.7151 12.2605 21.9104 12.2069 21.0514C12.1533 20.1924 12.3831 19.3417 12.8508 18.6675C13.3185 17.9934 13.9899 17.5449 14.7324 17.4109C15.4748 17.2769 16.2341 17.467 16.86 17.9438L28.14 28.2563C28.6696 28.7358 29.325 28.9967 30 28.9967C30.675 28.9967 31.3304 28.7358 31.86 28.2563L43.14 17.9438C43.7617 17.3817 44.5521 17.1241 45.3389 17.2271C46.1257 17.3301 46.845 17.7855 47.34 18.4937Z" fill="#BBBBBB"/>
</svg>
