<svg width="34" height="34" viewBox="0 0 34 34" fill="none" xmlns="http://www.w3.org/2000/svg">
<path d="M21.25 22.6666H12.75C12.3743 22.6666 12.014 22.8159 11.7483 23.0816C11.4826 23.3472 11.3334 23.7076 11.3334 24.0833C11.3334 24.459 11.4826 24.8194 11.7483 25.085C12.014 25.3507 12.3743 25.5 12.75 25.5H21.25C21.6258 25.5 21.9861 25.3507 22.2518 25.085C22.5175 24.8194 22.6667 24.459 22.6667 24.0833C22.6667 23.7076 22.5175 23.3472 22.2518 23.0816C21.9861 22.8159 21.6258 22.6666 21.25 22.6666Z" fill="#8C8888"/>
<path d="M12.75 19.8333H17C17.3758 19.8333 17.7361 19.6841 18.0018 19.4184C18.2675 19.1527 18.4167 18.7924 18.4167 18.4167C18.4167 18.0409 18.2675 17.6806 18.0018 17.4149C17.7361 17.1493 17.3758 17 17 17H12.75C12.3743 17 12.014 17.1493 11.7483 17.4149C11.4826 17.6806 11.3334 18.0409 11.3334 18.4167C11.3334 18.7924 11.4826 19.1527 11.7483 19.4184C12.014 19.6841 12.3743 19.8333 12.75 19.8333V19.8333Z" fill="#8C8888"/>
<path d="M27.965 11.8009L20.2583 3.30088C20.1258 3.15413 19.9641 3.03672 19.7836 2.9562C19.603 2.87569 19.4076 2.83385 19.21 2.83338H9.29329C8.8226 2.82777 8.35542 2.91493 7.91842 3.08988C7.48142 3.26483 7.08316 3.52416 6.74638 3.85304C6.40961 4.18192 6.14092 4.57392 5.95565 5.00665C5.77039 5.43938 5.67217 5.90436 5.66663 6.37505V27.625C5.67217 28.0957 5.77039 28.5607 5.95565 28.9935C6.14092 29.4262 6.40961 29.8182 6.74638 30.1471C7.08316 30.4759 7.48142 30.7353 7.91842 30.9102C8.35542 31.0852 8.8226 31.1723 9.29329 31.1667H24.7066C25.1773 31.1723 25.6445 31.0852 26.0815 30.9102C26.5185 30.7353 26.9168 30.4759 27.2535 30.1471C27.5903 29.8182 27.859 29.4262 28.0443 28.9935C28.2295 28.5607 28.3277 28.0957 28.3333 27.625V12.7501C28.3324 12.399 28.2011 12.0607 27.965 11.8009V11.8009ZM19.8333 7.08338L23.715 11.3334H20.8816C20.7333 11.3244 20.5882 11.286 20.4548 11.2204C20.3215 11.1547 20.2026 11.0632 20.105 10.9511C20.0074 10.839 19.9331 10.7086 19.8865 10.5675C19.8398 10.4264 19.8217 10.2774 19.8333 10.1292V7.08338ZM24.7066 28.3334H9.29329C9.19466 28.3391 9.09586 28.3253 9.00256 28.2928C8.90926 28.2603 8.82329 28.2097 8.74959 28.1439C8.67589 28.0781 8.6159 27.9984 8.57307 27.9094C8.53023 27.8203 8.50539 27.7237 8.49996 27.625V6.37505C8.50539 6.2764 8.53023 6.17978 8.57307 6.09075C8.6159 6.00172 8.67589 5.92201 8.74959 5.85621C8.82329 5.7904 8.90926 5.73979 9.00256 5.70728C9.09586 5.67476 9.19466 5.66098 9.29329 5.66672H17V10.1292C16.9771 11.1728 17.3679 12.183 18.0872 12.9394C18.8065 13.6958 19.7957 14.137 20.8391 14.1667H25.5V27.625C25.4945 27.7237 25.4697 27.8203 25.4269 27.9094C25.384 27.9984 25.324 28.0781 25.2503 28.1439C25.1766 28.2097 25.0907 28.2603 24.9974 28.2928C24.9041 28.3253 24.8053 28.3391 24.7066 28.3334Z" fill="#8C8888"/>
</svg>
