<svg width="63" height="74" viewBox="0 0 63 74" fill="none" xmlns="http://www.w3.org/2000/svg">
<path d="M31.5 48.1356V56.0025M14.6822 27.3835V18.5491C14.696 14.6941 16.4723 11.0004 19.6233 8.27447C22.7742 5.54856 27.0439 4.01192 31.5 4C35.9551 4.01194 40.2237 5.54886 43.373 8.27502C46.5223 11.0012 48.2963 14.6949 48.3073 18.5491V27.3835M59 46.2096C59 59.3487 46.6878 70 31.5 70C16.3122 70 4 59.3487 4 46.2096C4 33.0705 16.3122 22.4192 31.5 22.4192C46.6878 22.4192 59 33.0705 59 46.2096ZM38.2626 42.2762C38.2626 45.5073 35.2349 48.1266 31.5 48.1266C27.7651 48.1266 24.7374 45.5073 24.7374 42.2762C24.7374 39.0451 27.7651 36.4258 31.5 36.4258C35.2349 36.4258 38.2626 39.0451 38.2626 42.2762Z" stroke="#BBBBBB" stroke-width="7" stroke-linecap="round" stroke-linejoin="round"/>
</svg>
