<svg width="30" height="30" viewBox="0 0 30 30" fill="none" xmlns="http://www.w3.org/2000/svg">
<g clip-path="url(#clip0_50_88)">
<rect width="30" height="30" fill="#FFFCFC"/>
<path d="M26.25 8.75H3.75C3.40482 8.75 3.125 9.02982 3.125 9.375V20.625C3.125 20.9701 3.40482 21.25 3.75 21.25H26.25C26.5951 21.25 26.875 20.9701 26.875 20.625V9.375C26.875 9.02982 26.5951 8.75 26.25 8.75Z" stroke="#9D9D9D" stroke-width="2" stroke-linecap="round" stroke-linejoin="round"/>
<path d="M28.125 6.25H1.875C1.18464 6.25 0.625 6.80965 0.625 7.5V22.5C0.625 23.1904 1.18464 23.75 1.875 23.75H28.125C28.8154 23.75 29.375 23.1904 29.375 22.5V7.5C29.375 6.80965 28.8154 6.25 28.125 6.25Z" stroke="#9D9D9D" stroke-width="2" stroke-linecap="round" stroke-linejoin="round"/>
<path d="M15 18.75C17.0711 18.75 18.75 17.0711 18.75 15C18.75 12.9289 17.0711 11.25 15 11.25C12.9289 11.25 11.25 12.9289 11.25 15C11.25 17.0711 12.9289 18.75 15 18.75Z" stroke="#9D9D9D" stroke-width="2" stroke-linecap="round" stroke-linejoin="round"/>
<path d="M6.245 12.1875C6.07242 12.1875 5.9325 12.0476 5.9325 11.875C5.9325 11.7024 6.07242 11.5625 6.245 11.5625" stroke="#9D9D9D" stroke-width="2"/>
<path d="M6.245 12.1875C6.41759 12.1875 6.5575 12.0476 6.5575 11.875C6.5575 11.7024 6.41759 11.5625 6.245 11.5625" stroke="#9D9D9D" stroke-width="2"/>
<path d="M23.745 18.4375C23.5724 18.4375 23.4325 18.2976 23.4325 18.125C23.4325 17.9524 23.5724 17.8125 23.745 17.8125" stroke="#9D9D9D" stroke-width="2"/>
<path d="M23.745 18.4375C23.9176 18.4375 24.0575 18.2976 24.0575 18.125C24.0575 17.9524 23.9176 17.8125 23.745 17.8125" stroke="#9D9D9D" stroke-width="2"/>
</g>
<defs>
<clipPath id="clip0_50_88">
<rect width="30" height="30" fill="white"/>
</clipPath>
</defs>
</svg>
