<svg width="66" height="61" viewBox="0 0 66 61" fill="none" xmlns="http://www.w3.org/2000/svg">
<path d="M3.00252 47.7307V52.3191C2.95908 53.7775 3.47787 55.1942 4.44526 56.259C5.41265 57.3238 6.74975 57.9498 8.16381 58H57.8362C59.2502 57.9498 60.5874 57.3238 61.5547 56.259C62.5221 55.1942 63.0409 53.7775 62.9975 52.3191V22.656C63.0409 21.1975 62.5221 19.7808 61.5547 18.716C60.5874 17.6513 59.2502 17.0252 57.8362 16.975H8.16381C6.74975 17.0252 5.41265 17.6513 4.44526 18.716C3.47787 19.7808 2.95908 21.1975 3.00252 22.656V47.5733M3.00253 32.4359H25.4614M40.5386 32.4359H62.9975M17.8084 16.975V8.06037C17.8084 6.71827 18.3254 5.43117 19.2457 4.48216C20.166 3.53316 21.4141 3 22.7155 3H43.2845C44.5867 3 45.8357 3.53287 46.7573 4.48163C47.6789 5.43038 48.1978 6.71747 48.2001 8.06037V16.975M27.5802 27.6115H38.4283C39.5985 27.6115 40.5471 28.5897 40.5471 29.7964V35.0841C40.5471 36.2908 39.5985 37.269 38.4283 37.269H27.5802C26.4101 37.269 25.4614 36.2908 25.4614 35.0841V29.7964C25.4614 28.5897 26.4101 27.6115 27.5802 27.6115Z" stroke="#BBBBBB" stroke-width="5" stroke-linecap="round" stroke-linejoin="round"/>
</svg>
