<svg width="48" height="49" viewBox="0 0 48 49" fill="none" xmlns="http://www.w3.org/2000/svg">
<path d="M43.2498 38.3751C43.235 36.4162 42.4543 34.5409 41.0748 33.1501L40.4998 32.5001C38.3443 30.3449 35.4229 29.1314 32.3748 29.1251C30.6384 29.1382 28.928 29.5487 27.3748 30.3251L25.2498 31.3751C23.441 30.4991 21.7929 29.3243 20.3748 27.9001C18.9535 26.4379 17.7874 24.7478 16.9248 22.9001L17.9748 20.7751C18.7641 19.2255 19.1834 17.514 19.1998 15.7751C19.1738 14.2535 18.8467 12.7521 18.2374 11.3575C17.6281 9.963 16.7487 8.70295 15.6498 7.6501L14.9498 6.9751C13.5446 5.56817 11.6383 4.77685 9.6498 4.7751H7.54981C5.56068 4.7751 3.65303 5.56527 2.2465 6.9718C0.839981 8.37832 0.0498047 10.286 0.0498047 12.2751V12.5001C0.128709 16.6012 0.767962 20.6722 1.9498 24.6001C3.4867 29.6876 6.23142 34.3279 9.94981 38.1251C13.7335 41.8539 18.3663 44.6078 23.4498 46.1501C27.3745 47.3491 31.4468 47.997 35.5498 48.0751H35.7248C37.7139 48.0751 39.6216 47.2849 41.0281 45.8784C42.4346 44.4719 43.2248 42.5642 43.2248 40.5751V38.4751L43.2498 38.3751ZM35.7498 43.0251C32.1207 42.967 28.5182 42.3946 25.0498 41.3251C20.7357 40.0222 16.7994 37.6982 13.5748 34.5501C10.4334 31.3246 8.11771 27.3879 6.82481 23.0751C5.774 19.5946 5.21031 15.9853 5.14981 12.3501C5.14981 11.6871 5.4132 11.0512 5.88204 10.5823C6.35088 10.1135 6.98676 9.8501 7.64981 9.8501H9.7498C10.0788 9.8482 10.405 9.91126 10.7096 10.0357C11.0142 10.1601 11.2912 10.3434 11.5248 10.5751L12.1998 11.2501C13.362 12.4591 14.0076 14.0731 13.9998 15.7501C14 16.7506 13.7599 17.7366 13.2998 18.6251L11.7248 21.8001C11.5762 22.1258 11.4994 22.4796 11.4994 22.8376C11.4994 23.1956 11.5762 23.5494 11.7248 23.8751C12.8799 26.6807 14.5793 29.2298 16.7248 31.3751C18.8693 33.5217 21.4186 35.2212 24.2248 36.3751C24.5505 36.5237 24.9043 36.6005 25.2623 36.6005C25.6203 36.6005 25.9741 36.5237 26.2998 36.3751L29.4748 34.7751C30.6927 34.1551 32.0766 33.9396 33.4253 34.1599C34.7741 34.3802 36.0175 35.0248 36.9748 36.0001L37.6498 36.7001C38.1117 37.1657 38.372 37.7942 38.3748 38.4501V40.5251C38.3754 40.8664 38.3061 41.2042 38.1712 41.5178C38.0363 41.8313 37.8386 42.1139 37.5904 42.3481C37.3421 42.5823 37.0485 42.7632 36.7276 42.8796C36.4068 42.9961 36.0655 43.0456 35.7248 43.0251H35.7498ZM24.0998 13.5001C24.0071 12.8437 24.1789 12.1774 24.5774 11.6476C24.9758 11.1178 25.5684 10.768 26.2248 10.6751C26.6408 10.6426 27.0588 10.6426 27.4748 10.6751C28.5515 10.6903 29.6206 10.8587 30.6498 11.1751C32.1205 11.6445 33.4575 12.4591 34.5492 13.5507C35.6408 14.6424 36.4554 15.9794 36.9248 17.4501C37.2473 18.4773 37.4076 19.5485 37.3998 20.6251C37.4411 21.0407 37.4411 21.4595 37.3998 21.8751C37.3103 22.5381 36.9611 23.1385 36.4289 23.544C35.8968 23.9496 35.2253 24.1271 34.5623 24.0376C33.8993 23.9481 33.2989 23.5989 32.8934 23.0667C32.4878 22.5346 32.3103 21.8631 32.3998 21.2001C32.3998 21.2001 32.3998 20.9501 32.3998 20.6251C32.4123 20.0566 32.3278 19.4902 32.1498 18.9501C31.935 18.2419 31.5488 17.5976 31.0255 17.0744C30.5023 16.5511 29.858 16.1649 29.1498 15.9501C28.6076 15.7785 28.0434 15.6859 27.4748 15.6751C27.2918 15.6589 27.1078 15.6589 26.9248 15.6751C26.5961 15.7207 26.2616 15.7003 25.9408 15.6153C25.62 15.5302 25.3194 15.3821 25.0565 15.1797C24.7935 14.9772 24.5735 14.7244 24.4092 14.4361C24.245 14.1477 24.1398 13.8295 24.0998 13.5001ZM47.0248 18.2001V18.5501C47.0248 19.2131 46.7614 19.849 46.2926 20.3179C45.8237 20.7867 45.1878 21.0501 44.5248 21.0501C43.8618 21.0501 43.2259 20.7867 42.757 20.3179C42.2882 19.849 42.0248 19.2131 42.0248 18.5501V18.3001C42.0161 17.0981 41.8393 15.9032 41.4998 14.7501C40.9555 12.7951 39.9214 11.0114 38.4952 9.56768C37.069 8.124 35.298 7.06816 33.3498 6.5001C32.1967 6.16055 31.0018 5.98384 29.7998 5.9751H29.5748C29.2465 5.9833 28.9198 5.92677 28.6133 5.80871C28.3069 5.69066 28.0267 5.5134 27.7887 5.28706C27.5508 5.06072 27.3597 4.78972 27.2265 4.48955C27.0933 4.18938 27.0205 3.8659 27.0123 3.5376C27.0041 3.20929 27.0606 2.88259 27.1787 2.57613C27.2967 2.26968 27.474 1.98947 27.7003 1.75152C27.9267 1.51357 28.1977 1.32254 28.4979 1.18932C28.798 1.0561 29.1215 0.983305 29.4498 0.975098H29.7998C31.494 0.981751 33.1782 1.23439 34.7998 1.7251C37.5292 2.52004 40.0139 3.99064 42.0241 6.0008C44.0343 8.01096 45.5049 10.4957 46.2998 13.2251C46.7831 14.8391 47.0274 16.5153 47.0248 18.2001Z" fill="#BBBBBB"/>
</svg>
