<svg width="25" height="24" viewBox="0 0 25 24" fill="none" xmlns="http://www.w3.org/2000/svg">
<path d="M24.2196 13.1782L14.9696 23.4282C14.8258 23.5875 14.6552 23.7139 14.4674 23.8001C14.2796 23.8863 14.0783 23.9306 13.875 23.9306C13.6717 23.9306 13.4704 23.8863 13.2826 23.8001C13.0948 23.7139 12.9242 23.5875 12.7804 23.4282C12.6367 23.269 12.5226 23.0799 12.4449 22.8717C12.3671 22.6636 12.327 22.4406 12.327 22.2153C12.327 21.9901 12.3671 21.767 12.4449 21.5589C12.5226 21.3508 12.6367 21.1617 12.7804 21.0024L19.4096 13.6737H1.54167C1.13279 13.6737 0.740663 13.4937 0.451544 13.1733C0.162425 12.8529 0 12.4184 0 11.9653C0 11.5122 0.162425 11.0777 0.451544 10.7573C0.740663 10.437 1.13279 10.257 1.54167 10.257H19.4096L12.7804 2.92824C12.4901 2.60655 12.327 2.17026 12.327 1.71532C12.327 1.26039 12.4901 0.824092 12.7804 0.502407C13.0707 0.180721 13.4645 6.77902e-09 13.875 0C14.2855 -6.77901e-09 14.6793 0.180721 14.9696 0.502407L24.2196 10.7524C24.3641 10.9112 24.4788 11.1002 24.557 11.3083C24.6353 11.5165 24.6756 11.7398 24.6756 11.9653C24.6756 12.1908 24.6353 12.4141 24.557 12.6223C24.4788 12.8305 24.3641 13.0194 24.2196 13.1782Z" fill="white"/>
</svg>
