<svg width="60" height="61" viewBox="0 0 60 61" fill="none" xmlns="http://www.w3.org/2000/svg">
<path d="M30 12.3738C27.6266 12.3738 25.3066 13.0847 23.3332 14.4166C21.3598 15.7485 19.8217 17.6415 18.9135 19.8564C18.0052 22.0713 17.7676 24.5084 18.2306 26.8597C18.6936 29.211 19.8365 31.3708 21.5147 33.066C23.193 34.7612 25.3312 35.9156 27.6589 36.3833C29.9867 36.851 32.3995 36.6109 34.5922 35.6935C36.7849 34.7761 38.6591 33.2225 39.9776 31.2292C41.2962 29.2358 42 26.8923 42 24.495C42 21.2802 40.7357 18.1972 38.4853 15.924C36.2349 13.6508 33.1826 12.3738 30 12.3738ZM30 30.5556C28.8133 30.5556 27.6533 30.2001 26.6666 29.5342C25.6799 28.8682 24.9109 27.9217 24.4567 26.8143C24.0026 25.7068 23.8838 24.4883 24.1153 23.3126C24.3468 22.137 24.9183 21.0571 25.7574 20.2095C26.5965 19.3619 27.6656 18.7847 28.8295 18.5508C29.9934 18.317 31.1998 18.437 32.2961 18.8957C33.3925 19.3544 34.3295 20.1312 34.9888 21.1279C35.6481 22.1246 36 23.2963 36 24.495C36 26.1024 35.3679 27.6439 34.2426 28.7805C33.1174 29.9171 31.5913 30.5556 30 30.5556ZM30 0.252563C24.0666 0.252563 18.2664 2.0298 13.3329 5.35954C8.39943 8.68928 4.55426 13.422 2.28363 18.9591C0.0129986 24.4963 -0.581101 30.5892 0.576455 36.4674C1.73401 42.3456 4.59123 47.7451 8.78681 51.9831C12.9824 56.221 18.3279 59.1071 24.1473 60.2763C29.9667 61.4456 35.9987 60.8455 41.4805 58.5519C46.9623 56.2584 51.6476 52.3743 54.9441 47.391C58.2405 42.4077 60 36.549 60 30.5556C60 26.5761 59.224 22.6357 57.7164 18.9591C56.2088 15.2826 53.999 11.942 51.2132 9.12811C48.4275 6.31422 45.1203 4.08211 41.4805 2.55924C37.8407 1.03637 33.9397 0.252563 30 0.252563ZM18 51.5253V48.7374C18 47.9337 18.3161 47.1629 18.8787 46.5947C19.4413 46.0264 20.2044 45.7071 21 45.7071H39C39.7957 45.7071 40.5587 46.0264 41.1213 46.5947C41.6839 47.1629 42 47.9337 42 48.7374V51.5253C38.3566 53.6679 34.216 54.7968 30 54.7968C25.7841 54.7968 21.6434 53.6679 18 51.5253ZM47.79 46.7677C47.3461 44.7474 46.2331 42.9405 44.6348 41.6457C43.0366 40.3509 41.0488 39.6456 39 39.6465H21C18.9512 39.6456 16.9634 40.3509 15.3652 41.6457C13.767 42.9405 12.6539 44.7474 12.21 46.7677C9.09178 43.2894 7.03996 38.9717 6.30351 34.3386C5.56705 29.7055 6.17763 24.956 8.06114 20.6665C9.94466 16.377 13.0202 12.7319 16.9144 10.1734C20.8087 7.61494 25.3545 6.25307 30 6.25307C34.6456 6.25307 39.1913 7.61494 43.0856 10.1734C46.9799 12.7319 50.0554 16.377 51.9389 20.6665C53.8224 24.956 54.433 29.7055 53.6965 34.3386C52.9601 38.9717 50.9082 43.2894 47.79 46.7677Z" fill="#BBBBBB"/>
</svg>
