<svg width="70" height="70" viewBox="0 0 70 70" fill="none" xmlns="http://www.w3.org/2000/svg">
<path d="M10 32C10.3724 19.2112 16.6207 5 35.0011 5C53.3478 5 59.6068 19.1592 60 31.9298" stroke="#90267A" stroke-width="2.7" stroke-linecap="round"/>
<path d="M2 42C2 34 7.71429 32 10.5714 32C15.7143 32 17 36 17 38V46C17 50.8 12.7143 52 10.5714 52C7.71429 52 2 50 2 42Z" stroke="#90267A" stroke-width="2.7"/>
<path d="M67 42C67 34 61.2857 32 58.4286 32C53.2857 32 52 36 52 38V46C52 50.8 56.2857 52 58.4286 52C61.2857 52 67 50 67 42Z" stroke="#90267A" stroke-width="2.7"/>
<path d="M59.992 52C59.992 52 60.3735 60.0607 55.8715 63.5653C51.3695 67.07 40 66.9999 40 66.9999" stroke="#90267A" stroke-width="2.7" stroke-linecap="round"/>
</svg>
