<svg width="70" height="70" viewBox="0 0 70 70" fill="none" xmlns="http://www.w3.org/2000/svg">
<rect width="70" height="70" rx="5" fill="#FFFCFC"/>
<path fill-rule="evenodd" clip-rule="evenodd" d="M3.5 45.5H3.55416C3.98474 48.953 6.93033 51.625 10.5 51.625H29.75V58.625H25.375C22.1133 58.625 19.3726 60.8559 18.5955 63.875C18.4516 64.4343 18.375 65.0207 18.375 65.625H51.625C51.625 65.0207 51.5484 64.4343 51.4045 63.875C50.6274 60.8559 47.8867 58.625 44.625 58.625H40.25V51.625H59.5C63.0697 51.625 66.0153 48.953 66.4458 45.5H66.5V11.375C66.5 7.50901 63.366 4.375 59.5 4.375H10.5C6.63401 4.375 3.5 7.50901 3.5 11.375V45.5ZM10.5 6.125H59.5C62.3995 6.125 64.75 8.47551 64.75 11.375V43.75H5.25V11.375C5.25 8.4755 7.6005 6.125 10.5 6.125ZM38.5 58.625V51.625H31.5V58.625H38.5ZM25.375 60.375C23.0891 60.375 21.1444 61.8359 20.4237 63.875H49.5763C48.8555 61.8359 46.9109 60.375 44.625 60.375H25.375ZM10.5 49.875C7.89863 49.875 5.73916 47.983 5.32259 45.5H64.6774C64.2608 47.983 62.1014 49.875 59.5 49.875H10.5Z" fill="#90267A"/>
</svg>
