<svg width="52" height="42" viewBox="0 0 52 42" fill="none" xmlns="http://www.w3.org/2000/svg">
<path d="M44.7814 17.252L27.7726 30.7335C27.5749 30.8915 27.3398 31.0168 27.0807 31.1024C26.8216 31.1879 26.5437 31.232 26.263 31.232C25.9824 31.232 25.7045 31.1879 25.4454 31.1024C25.1863 31.0168 24.9511 30.8915 24.7535 30.7335L7.74465 17.252C7.3443 16.9347 7.11938 16.5043 7.11938 16.0555C7.11938 15.6068 7.3443 15.1764 7.74465 14.8591C8.14501 14.5417 8.688 14.3635 9.25419 14.3635C9.82037 14.3635 10.3634 14.5417 10.7637 14.8591L26.263 27.1609L41.7623 14.8591C42.1627 14.5417 42.7057 14.3635 43.2719 14.3635C43.838 14.3635 44.381 14.5417 44.7814 14.8591C45.1817 15.1764 45.4067 15.6068 45.4067 16.0555C45.4067 16.5043 45.1817 16.9347 44.7814 17.252Z" fill="black"/>
</svg>
